<?xml version="1.0" encoding="UTF-8"?>
<svg width="100" height="100" version="1.1" viewBox="0 0 100 100" xmlns="http://www.w3.org/2000/svg"><g stroke-width="0"><rect width="100" height="100" fill="#7e00fe"/><text x="17.110483" y="79.999985" display="none" fill="#ffffff" font-family="Outfit" font-size="42.493px" font-weight="bold" stroke="#ffffff" stroke-linecap="square" style="line-height:0;paint-order:normal" xml:space="preserve"><tspan x="17.110483" y="79.999985" fill="#ffffff" font-family="Outfit" font-weight="bold" stroke-width="0">Fr</tspan></text><path d="m20 80v-30h6.6714v30zm5.0991-11.771v-5.7365h15v5.7365zm0-12.493v-5.7365h15.68v5.7365zm19.377 24.263v-20.652h6.5014v20.652zm6.5014-11.346-2.7195-2.1246q0.80736-3.6119 2.7195-5.6091 1.9122-1.9972 5.3116-1.9972 1.4873 0 2.5921 0.46742 1.1473 0.42493 1.9972 1.3598l-3.8669 4.8867q-0.42493-0.46742-1.0623-0.72238t-1.4448-0.25496q-1.6147 0-2.5921 1.0198-0.93484 0.97734-0.93484 2.9745z" fill="#fff" aria-label="Fr"/><rect x="60.878" y="74" width="16.402" height="6" fill="#fff"/></g></svg>
