<svg xmlns="http://www.w3.org/2000/svg" xml:space="preserve" width="431" height="100"><g stroke-width="0"><path fill="#7e00fe" d="M0 0h100v100H0z"/><path fill="#fff" d="M20 80V50h6.67v30zm5.1-11.8v-5.74h15v5.74zm0-12.5v-5.74h15.7v5.74zM44.5 80V59.3H51V80zM51 68.7l-2.72-2.12q.807-3.61 2.72-5.61 1.91-2 5.31-2 1.49 0 2.59.467 1.15.425 2 1.36l-3.87 4.89q-.425-.467-1.06-.722t-1.44-.255q-1.61 0-2.59 1.02-.935.977-.935 2.97z" aria-label="Fr"/><path fill="#fff" d="M60.9 74.3h16.4v5.74H60.9z"/></g><path fill="#1a1a1a" stroke-width="0" d="M120 88.9V10h13v78.9zm8.9-33.8V43.3H169v11.8zm0-33.2V10.1h42v11.8zm53.2 67V34.8h12.4v54.1zm12.4-30.1-4.28-2.14q0-10.3 4.51-16.6 4.62-6.42 13.9-6.42 4.06 0 7.32 1.46t6.08 4.73l-8.11 8.34q-1.46-1.58-3.27-2.25-1.8-.676-4.17-.676-5.18 0-8.56 3.27-3.38 3.27-3.38 10.3zm57 31.2q-8.11 0-14.6-3.61-6.42-3.72-10.3-10.1-3.72-6.42-3.72-14.4t3.72-14.3q3.72-6.42 10-10.1 6.42-3.72 14.2-3.72 7.55 0 13.3 3.49 5.86 3.49 9.13 9.58 3.38 6.08 3.38 13.9 0 1.35-.225 2.82-.113 1.35-.451 3.04h-44.4V56.5h38l-4.62 4.06q-.225-4.96-1.92-8.34t-4.85-5.18q-3.04-1.8-7.55-1.8-4.73 0-8.23 2.03-3.49 2.03-5.41 5.75-1.92 3.61-1.92 8.68t2.03 8.9q2.03 3.83 5.75 5.97 3.72 2.03 8.56 2.03 4.17 0 7.66-1.46 3.61-1.46 6.08-4.28l7.89 8q-3.94 4.62-9.58 6.99t-11.9 2.37zm60.2 0q-8.11 0-14.6-3.61-6.42-3.72-10.3-10.1-3.72-6.42-3.72-14.4t3.72-14.3q3.72-6.42 10-10.1 6.42-3.72 14.2-3.72 7.55 0 13.3 3.49 5.86 3.49 9.13 9.58 3.38 6.08 3.38 13.9 0 1.35-.225 2.82-.113 1.35-.451 3.04h-44.4V56.5h38l-4.62 4.06q-.225-4.96-1.92-8.34t-4.85-5.18q-3.04-1.8-7.55-1.8-4.73 0-8.23 2.03-3.49 2.03-5.41 5.75-1.92 3.61-1.92 8.68t2.03 8.9 5.75 5.97q3.72 2.03 8.56 2.03 4.17 0 7.66-1.46 3.61-1.46 6.08-4.28l7.89 8q-3.94 4.62-9.58 6.99t-11.9 2.37zm35-1.13v-54.1h12.4v54.1zm35.9 0v-32.2q0-5.41-3.38-8.34-3.38-3.04-8.34-3.04-3.38 0-6.08 1.35-2.59 1.35-4.17 3.94-1.58 2.48-1.58 6.08l-4.85-2.7q0-6.2 2.7-10.7 2.7-4.51 7.32-6.99 4.62-2.59 10.4-2.59t10.4 2.48q4.62 2.48 7.32 6.99t2.7 10.8v34.9zm35.9 0v-32.2q0-5.41-3.38-8.34-3.38-3.04-8.34-3.04-3.27 0-5.97 1.35-2.7 1.35-4.28 3.94-1.58 2.48-1.58 6.08l-6.99-2.7q.563-6.2 3.61-10.7 3.04-4.51 7.77-6.99 4.85-2.59 10.6-2.59 5.86 0 10.6 2.48t7.55 6.99q2.82 4.51 2.82 10.8v34.9z" aria-label="Freem"/></svg>